<?xml version="1.0" encoding="utf-8"?>
<!-- Generator: Adobe Illustrator 21.1.0, SVG Export Plug-In . SVG Version: 6.00 Build 0)  -->
<svg version="1.1" id="Layer_1" xmlns="http://www.w3.org/2000/svg" xmlns:xlink="http://www.w3.org/1999/xlink" x="0px" y="0px"
	 viewBox="0 0 820 453" style="enable-background:new 0 0 820 453;" xml:space="preserve">
<style type="text/css">
	.st0{fill:#F77206;}
</style>
<g transform="translate(0.000000,453.000000) scale(0.100000,-0.100000)">
	<path class="st0" d="M3470,3815c-344-162-643-303-665-313l-40-19l148-71l147-71v-119c0-114-1-119-23-131c-30-16-57-61-57-96
		c0-33,24-81,47-94c17-9,16-15-10-88c-16-43-29-82-30-88s41-11,106-13c59-1,107,1,107,5s-14,44-31,88l-31,82l31,31
		c26,25,31,38,31,78c0,41-5,51-35,80l-36,33l3,100l3,99l108-51l107-50l68,65c260,251,641,340,987,231c147-47,273-122,387-231l68-65
		l282,132c156,73,286,136,290,140c7,6-1295,623-1325,628C4100,4108,3814,3977,3470,3815z"/>
	<path class="st0" d="M3966,3204c-301-59-526-339-526-654c0-303,209-570,505-645c77-19,243-19,320,0c240,61,441,266,490,500
		C4855,2884,4445,3300,3966,3204z"/>
	<path class="st0" d="M3480,1667c-164-135-274-301-337-504c-27-87-27-93-31-420l-3-333h996h996l-3,333c-4,309-6,337-27,407
		c-64,212-190,401-351,525l-57,44l-105-53c-181-91-369-127-549-106c-163,19-227,40-459,158C3547,1719,3515,1696,3480,1667z"/>
</g>
</svg>
